<svg aria-hidden="true" style="position:absolute;width:0;height:0;overflow:hidden" xmlns="http://www.w3.org/2000/svg">
    <defs>
        <symbol id="fridge" viewBox="0 0 32 32">
            <path d="M23.667 9.333a.997.997 0 0 0-1-1 .997.997 0 0 0-1 1V12a.997.997 0 0 0 1 1 .997.997 0 0 0 1-1V9.333zm0 9.334a.997.997 0 0 0-1-1 .997.997 0 0 0-1 1v2.667a.997.997 0 0 0 1 1 .997.997 0 0 0 1-1v-2.667z"/>
            <path d="M16.075 1.667h-.149c-2.451 0-4.392 0-5.911.204-1.563.211-2.828.653-3.827 1.651-.997.999-1.44 2.264-1.651 3.827-.204 1.52-.204 3.46-.204 5.911v4.149c0 2.451 0 4.392.204 5.911.211 1.563.653 2.828 1.651 3.827.613.612 1.325 1.015 2.145 1.284v.904a1 1 0 0 0 1 1h1.333a.997.997 0 0 0 1-1v-.395c1.209.061 2.62.061 4.259.061h.149c1.64 0 3.049 0 4.259-.061v.395a1 1 0 0 0 1 1h1.333a.997.997 0 0 0 1-1v-.904c.82-.269 1.533-.672 2.145-1.284.997-.999 1.44-2.264 1.651-3.827.204-1.52.204-3.46.204-5.911v-4.148c0-2.451 0-4.392-.204-5.911-.211-1.563-.653-2.828-1.651-3.827-.999-.997-2.264-1.44-3.827-1.651-1.52-.204-3.46-.204-5.911-.204zM7.603 4.936c.564-.564 1.337-.903 2.679-1.083 1.371-.184 3.176-.187 5.719-.187s4.349.003 5.72.187c1.34.18 2.113.519 2.677 1.083s.903 1.337 1.083 2.679c.184 1.371.187 3.176.187 5.719v1H6.335v-1c0-2.543.003-4.348.187-5.72.18-1.34.519-2.113 1.083-2.677zm-1.27 11.397h19.333v1c0 2.543-.003 4.349-.187 5.72-.18 1.34-.519 2.113-1.083 2.677s-1.337.903-2.679 1.083c-1.371.184-3.176.187-5.719.187s-4.348-.003-5.72-.187c-1.34-.18-2.113-.519-2.677-1.083s-.903-1.337-1.083-2.679c-.184-1.369-.187-3.176-.187-5.719v-1z"/>
        </symbol>
        <symbol id="van" viewBox="0 0 32 32">
            <path d="M12 2H2v28h10V2zm18 0H20v10h10V2zm0 18v10H20V20h10zM0 2a2 2 0 0 1 2-2h10a2 2 0 0 1 2 2v28a2 2 0 0 1-2 2H2a2 2 0 0 1-2-2V2zm18 0a2 2 0 0 1 2-2h10a2 2 0 0 1 2 2v10a2 2 0 0 1-2 2H20a2 2 0 0 1-2-2V2zm2 16a2 2 0 0 0-2 2v10a2 2 0 0 0 2 2h10a2 2 0 0 0 2-2V20a2 2 0 0 0-2-2H20z"/>
        </symbol>
        <symbol id="full" viewBox="0 0 32 32">
            <path d="M2 5a3.004 3.004 0 0 1 3-3h6a3.004 3.004 0 0 1 3 3v6a3.004 3.004 0 0 1-3 3H5a3.004 3.004 0 0 1-3-3V5zm3-1a.997.997 0 0 0-1 1v6a.997.997 0 0 0 1 1h6a.997.997 0 0 0 1-1V5a.997.997 0 0 0-1-1H5zm13 1a3.004 3.004 0 0 1 3-3h6a3.004 3.004 0 0 1 3 3v6a3.004 3.004 0 0 1-3 3h-6a3.004 3.004 0 0 1-3-3V5zm3-1a.997.997 0 0 0-1 1v6a.997.997 0 0 0 1 1h6a.997.997 0 0 0 1-1V5a.997.997 0 0 0-1-1h-6zM2 21a3.004 3.004 0 0 1 3-3h6a3.004 3.004 0 0 1 3 3v6a3.004 3.004 0 0 1-3 3H5a3.004 3.004 0 0 1-3-3v-6zm3-1a.997.997 0 0 0-1 1v6a.997.997 0 0 0 1 1h6a.997.997 0 0 0 1-1v-6a.997.997 0 0 0-1-1H5zm13 1a3.004 3.004 0 0 1 3-3h6a3.004 3.004 0 0 1 3 3v6a3.004 3.004 0 0 1-3 3h-6a3.004 3.004 0 0 1-3-3v-6zm3-1a.997.997 0 0 0-1 1v6a.997.997 0 0 0 1 1h6a.997.997 0 0 0 1-1v-6a.997.997 0 0 0-1-1h-6z"/>
        </symbol>
        <symbol id="alcove" viewBox="0 0 32 32">
            <path d="M8 4v4H4V4h4zm2 24v-4a2 2 0 0 0-2-2H4a2 2 0 0 0-2 2v4a2 2 0 0 0 2 2h4a2 2 0 0 0 2-2zm0-10v-4a2 2 0 0 0-2-2H4a2 2 0 0 0-2 2v4a2 2 0 0 0 2 2h4a2 2 0 0 0 2-2zm0-10V4a2 2 0 0 0-2-2H4a2 2 0 0 0-2 2v4a2 2 0 0 0 2 2h4a2 2 0 0 0 2-2zm10 20v-4a2 2 0 0 0-2-2h-4a2 2 0 0 0-2 2v4a2 2 0 0 0 2 2h4a2 2 0 0 0 2-2zm0-10v-4a2 2 0 0 0-2-2h-4a2 2 0 0 0-2 2v4a2 2 0 0 0 2 2h4a2 2 0 0 0 2-2zm0-10V4a2 2 0 0 0-2-2h-4a2 2 0 0 0-2 2v4a2 2 0 0 0 2 2h4a2 2 0 0 0 2-2zm-2-4v4h-4V4h4zm10 0v4h-4V4h4zM8 14v4H4v-4h4zm10 0v4h-4v-4h4zm10 0h-4v4h4v-4zM8 24v4H4v-4h4zm10 0v4h-4v-4h4zm10 0v4h-4v-4h4zM24 2a2 2 0 0 0-2 2v4a2 2 0 0 0 2 2h4a2 2 0 0 0 2-2V4a2 2 0 0 0-2-2h-4zm-2 12a2 2 0 0 1 2-2h4a2 2 0 0 1 2 2v4a2 2 0 0 1-2 2h-4a2 2 0 0 1-2-2v-4zm2 8a2 2 0 0 0-2 2v4a2 2 0 0 0 2 2h4a2 2 0 0 0 2-2v-4a2 2 0 0 0-2-2h-4z"/>
        </symbol>
        <symbol id="microwave" viewBox="0 0 32 32">
            <path stroke-linejoin="round" stroke-linecap="round" stroke-width="2" d="M26.667 5.333H5.334A2.667 2.667 0 0 0 2.667 8v14.667a2.667 2.667 0 0 0 2.667 2.667h21.333a2.667 2.667 0 0 0 2.667-2.667V8a2.667 2.667 0 0 0-2.667-2.667z"/>
            <path stroke-linejoin="round" stroke-linecap="round" stroke-width="2" d="M17.333 10.667h-8C8.597 10.667 8 11.264 8 12v6.667C8 19.403 8.597 20 9.333 20h8c.736 0 1.333-.597 1.333-1.333V12c0-.736-.597-1.333-1.333-1.333zM24 10.667V20M8 25.333V28m16-2.667V28"/>
        </symbol>
        <symbol id="gas" viewBox="0 0 32 32">
            <path stroke-linejoin="round" stroke-linecap="round" stroke-width="2.4" d="M8 25.333h5.333M24 25.345v-.012M2.667 8c0-4.413.92-5.333 5.333-5.333h16c4.413 0 5.333.92 5.333 5.333v16c0 4.413-.92 5.333-5.333 5.333H8c-4.413 0-5.333-.92-5.333-5.333V8z"/>
            <path stroke-linejoin="round" stroke-linecap="round" stroke-width="2.4" d="M16 18.667A5.333 5.333 0 1 0 16 8a5.333 5.333 0 0 0 0 10.667zM20.667 13.333h2M16 18v2m-4.667-6.667h-2M16 8.667v-2"/>
        </symbol>
        <symbol id="hybrid" viewBox="0 0 32 32">
            <path stroke-linejoin="round" stroke-linecap="round" stroke-miterlimit="2" stroke-width=".75" d="M19.656 15.989H17.49M15.75 15.989h-3.406s-.063-1.128 1.083-2.166M14.239 19.511a1.489 1.489 0 1 1-2.978 0 1.489 1.489 0 0 1 2.978 0zM17.761 19.511a1.49 1.49 0 0 1 2.978 0 1.49 1.49 0 0 1-2.166 1.326"/>
            <path stroke-linejoin="round" stroke-linecap="round" stroke-miterlimit="2" stroke-width=".75" d="M11.261 19.511h-.89a.87.87 0 0 1-.87-.87v-.422c0-.334.27-.604.604-.604h.001a.277.277 0 0 0 .266-.201l.607-2.125a2.022 2.022 0 0 1 1.944-1.466h4.655c.514 0 .971.329 1.134.817l.073.22a2.048 2.048 0 0 0 1.942 1.4h.177a1.323 1.323 0 0 1 1.326 1.326v.029c.149 0 .271.122.271.271v.755c0 .48-.39.87-.87.87h-.89M17.761 19.511H16M24.459 20.578a.693.693 0 0 1 1.112 0C26.434 21.673 28 23.822 28 25.014a2.986 2.986 0 0 1-5.97 0c0-1.193 1.566-3.342 2.429-4.436zM16 4.5c6.347 0 11.5 5.153 11.5 11.5l-2-2M16 27.5C9.653 27.5 4.5 22.347 4.5 16l2 2"/>
            <path stroke-linejoin="round" stroke-linecap="round" stroke-miterlimit="2" stroke-width=".75" d="M24.5 26.5s-.608-.185-1-1M4.5 6.212A1.011 1.011 0 0 1 5.512 5.2a.188.188 0 0 0 .188-.188v-.327a.686.686 0 0 1 .684-.684h2.23a.682.682 0 0 1 .685.684v.327c0 .104.084.188.188.188h.001A1.013 1.013 0 0 1 10.5 6.212v5.509A1.48 1.48 0 0 1 9.021 13.2H5.979A1.48 1.48 0 0 1 4.5 11.721V6.212z"/>
            <path stroke-linejoin="round" stroke-linecap="round" stroke-miterlimit="2" stroke-width=".75" d="M8.216 8.969c.099 0 .19.056.233.145s.035.194-.024.274l-1.278 1.704a.235.235 0 0 1-.422-.171l.202-1.62a.294.294 0 0 0-.293-.332.307.307 0 0 1-.301-.366l.213-1.065a.42.42 0 0 1 .412-.338h.912a.419.419 0 0 1 .412.503M9.7 5.2H8.3"/>
        </symbol>
    </defs>
</svg>
