<svg aria-hidden="true" style="position:absolute;width:0;height:0;overflow:hidden" xmlns="http://www.w3.org/2000/svg">
    <defs>
        <symbol id="logo" viewBox="0 0 272 32">
            <path fill="#475467" style="fill:var(--color1, #475467)" d="M270.786 14.375h-7.216a1.98 1.98 0 0 0-.47-1.151 2.637 2.637 0 0 0-1.064-.739c-.428-.18-.9-.27-1.422-.27-.672 0-1.25.123-1.732.369-.484.246-.72.597-.71 1.051-.01.322.128.62.412.895.292.275.856.488 1.69.639l4.432.795c2.234.407 3.896 1.094 4.986 2.06 1.098.956 1.652 2.24 1.662 3.849-.01 1.553-.474 2.902-1.392 4.048-.91 1.136-2.156 2.017-3.736 2.642-1.572.615-3.368.923-5.384.923-3.334 0-5.942-.682-7.826-2.045-1.876-1.364-2.922-3.163-3.14-5.398h7.784a2.24 2.24 0 0 0 1.022 1.605c.588.369 1.326.554 2.216.554.72 0 1.312-.123 1.776-.369.474-.246.716-.597.724-1.051-.008-.417-.218-.748-.624-.994-.398-.246-1.024-.445-1.876-.597l-3.862-.682c-2.226-.388-3.892-1.127-5-2.216s-1.658-2.491-1.648-4.205c-.01-1.515.388-2.798 1.192-3.849.814-1.061 1.974-1.866 3.48-2.415 1.516-.559 3.31-.838 5.384-.838 3.154 0 5.64.653 7.458 1.96 1.828 1.307 2.788 3.116 2.884 5.426zM232.83 23.92l.056-9.318h1.024l5.284-7.33H248l-8.864 11.42h-2.216l-4.09 5.227zm-7.046 5.171V0h7.842v29.091h-7.842zm13.466 0-5-8.636 5.114-5.568 8.864 14.205h-8.978zM211.238 29.489c-2.368 0-4.394-.469-6.08-1.406-1.686-.947-2.978-2.263-3.878-3.949-.9-1.695-1.349-3.66-1.349-5.895s.449-4.195 1.349-5.881a9.562 9.562 0 0 1 3.878-3.949c1.686-.947 3.712-1.42 6.08-1.42 2.14 0 3.992.388 5.554 1.165 1.572.767 2.788 1.856 3.65 3.267.862 1.402 1.298 3.049 1.308 4.943h-7.274c-.104-1.146-.436-2.017-.994-2.614-.55-.606-1.26-.909-2.13-.909-.682 0-1.28.199-1.79.597-.512.388-.91.98-1.194 1.776-.284.786-.426 1.776-.426 2.969s.142 2.188.426 2.983c.284.786.682 1.378 1.194 1.776.51.388 1.108.582 1.79.582.578 0 1.088-.133 1.534-.398.444-.275.804-.672 1.08-1.193.284-.53.454-1.174.51-1.932h7.274c-.03 1.922-.47 3.598-1.322 5.028-.852 1.42-2.06 2.519-3.622 3.295-1.554.777-3.41 1.165-5.568 1.165zM188.097 19.545V7.272h7.841V29.09h-7.443v-4.148h-.227c-.473 1.392-1.302 2.481-2.486 3.267-1.184.777-2.59 1.165-4.219 1.165-1.525 0-2.86-.35-4.006-1.051-1.136-.701-2.022-1.667-2.656-2.898-.625-1.231-.942-2.642-.952-4.233V7.271h7.841v12.273c.009 1.08.284 1.927.824 2.543.549.616 1.316.923 2.301.923.653 0 1.217-.137 1.69-.412a2.814 2.814 0 0 0 1.108-1.193c.265-.521.393-1.141.383-1.861zM155.806 29.091V7.273h7.614v4.148h.227c.398-1.534 1.027-2.656 1.889-3.366.871-.71 1.889-1.065 3.054-1.065.341 0 .677.028 1.009.085.341.047.668.118.98.213v6.69c-.388-.133-.866-.232-1.435-.298s-1.056-.099-1.463-.099c-.767 0-1.458.175-2.074.526a3.71 3.71 0 0 0-1.435 1.449c-.35.616-.526 1.34-.526 2.173v11.364h-7.841zM128.902 6.364V0h25.284v6.364h-8.75v22.727h-7.784V6.364h-8.75z"/>
            <path fill="#101828" style="fill:var(--color2, #101828)" d="M125.016 0v29.091h-7.841V0h7.841zM102.493 29.489c-2.33 0-4.337-.445-6.023-1.335a9.355 9.355 0 0 1-3.878-3.864c-.9-1.686-1.349-3.703-1.349-6.051 0-2.254.455-4.223 1.364-5.909s2.192-2.997 3.849-3.935 3.613-1.406 5.867-1.406c1.648 0 3.139.256 4.474.767s2.476 1.255 3.423 2.23c.947.966 1.676 2.14 2.188 3.523s.767 2.94.767 4.673V20H93.686v-4.318h12.273c-.01-.625-.171-1.174-.483-1.648a3.074 3.074 0 0 0-1.236-1.122c-.511-.275-1.094-.412-1.747-.412-.634 0-1.217.137-1.747.412-.53.265-.956.634-1.278 1.108-.312.473-.478 1.027-.497 1.662v4.659c0 .701.147 1.326.44 1.875s.715.98 1.264 1.293c.549.312 1.212.469 1.989.469.54 0 1.032-.076 1.477-.227a3.34 3.34 0 0 0 1.165-.653c.322-.294.559-.644.71-1.051h7.159c-.246 1.515-.829 2.832-1.747 3.949-.918 1.108-2.135 1.97-3.651 2.585-1.506.606-3.267.909-5.284.909zM89.673 7.273l-7.329 21.818h-9.091l-7.33-21.818h8.239l3.523 14.432h.227l3.523-14.432h8.239zM50.112 29.432c-1.392 0-2.623-.227-3.693-.682-1.061-.464-1.894-1.165-2.5-2.102s-.909-2.131-.909-3.58c0-1.193.204-2.211.611-3.054.407-.852.975-1.548 1.705-2.088s1.577-.952 2.543-1.236a15.398 15.398 0 0 1 3.153-.554c1.222-.095 2.202-.208 2.94-.341.748-.142 1.288-.336 1.619-.582.331-.256.497-.592.497-1.009v-.057c0-.568-.218-1.004-.653-1.307s-.994-.455-1.676-.455c-.748 0-1.359.166-1.832.497-.464.322-.743.819-.838 1.491h-7.216a7.44 7.44 0 0 1 1.264-3.665c.758-1.127 1.861-2.027 3.31-2.699 1.449-.682 3.257-1.023 5.426-1.023 1.563 0 2.964.185 4.205.554 1.241.36 2.296.866 3.168 1.52.871.644 1.534 1.402 1.989 2.273a5.84 5.84 0 0 1 .696 2.813v14.943h-7.329v-3.068h-.171c-.436.814-.966 1.472-1.591 1.974a5.866 5.866 0 0 1-2.117 1.094c-.786.227-1.652.341-2.599.341zm2.557-4.943c.597 0 1.155-.123 1.676-.369.53-.246.961-.601 1.293-1.065s.497-1.027.497-1.69v-1.818a8.731 8.731 0 0 1-.668.241 13.888 13.888 0 0 1-1.563.398c-.284.057-.582.109-.895.156-.606.095-1.103.251-1.492.469-.379.208-.663.469-.852.781-.18.303-.27.644-.27 1.023 0 .606.213 1.07.639 1.392s.971.483 1.633.483zM26.904 29.091V7.273h7.614v4.148h.227c.398-1.534 1.027-2.656 1.889-3.366.871-.71 1.889-1.065 3.054-1.065.341 0 .677.028 1.009.085.341.047.668.118.98.213v6.69c-.388-.133-.866-.232-1.435-.298s-1.056-.099-1.463-.099c-.767 0-1.458.175-2.074.526a3.71 3.71 0 0 0-1.435 1.449c-.35.616-.526 1.34-.526 2.173v11.364h-7.841zM0 6.364V0h25.284v6.364h-8.75v22.727H8.75V6.364H0z"/>
        </symbol>
    </defs>
</svg>